<?xml version="1.0"?>
<svg xmlns="http://www.w3.org/2000/svg" xmlns:xlink="http://www.w3.org/1999/xlink" xmlns:svgjs="http://svgjs.com/svgjs" version="1.1" width="512" height="512" x="0" y="0" viewBox="0 0 512 512" style="enable-background:new 0 0 512 512" xml:space="preserve" class=""><g><g xmlns="http://www.w3.org/2000/svg"><path d="m115.083 170.751c-21.219-15.035-35.083-39.766-35.083-67.751 0-35.903 22.798-66.476 54.706-78.046-9.941-3.209-20.506-4.954-31.706-4.954-45.84 0-83 37.16-83 83 0 45.742 37.004 82.835 82.708 82.993 3.886-5.254 8.073-10.294 12.375-15.242z" fill="#cee1f2" data-original="#cee1f2" style=""/><path d="m235.979 95.436c-14.925-28.116-32.746-50.515-52.971-66.575-24.118-19.151-51.036-28.861-80.008-28.861-56.794 0-103 46.206-103 103s46.206 103 103 103c11.046 0 20-8.954 20-20s-8.954-20-20-20c-34.738 0-63-28.262-63-63s28.262-63 63-63c48.158 0 79.682 40.345 97.646 74.189 21.477 40.461 35.354 94.947 35.354 138.811v239c0 11.046 8.954 20 20 20s20-8.954 20-20v-239c0-39.721-10.514-101.972-40.021-157.564z" fill="#ffffff" data-original="#0023c4" style="" class=""/><path d="m409 206c-11.046 0-20-8.954-20-20s8.954-20 20-20c34.738 0 63-28.262 63-63s-28.262-63-63-63c-35.443 0-66.316 21.94-91.76 65.212-5.6 9.523-17.857 12.7-27.378 7.104-9.521-5.599-12.701-17.856-7.103-27.378 32.674-55.567 76.327-84.938 126.241-84.938 56.794 0 103 46.206 103 103s-46.206 103-103 103z" fill="#ffffff" data-original="#ff5cf3" style="" class=""/></g></g></svg>
