<?xml version="1.0"?>
<svg xmlns="http://www.w3.org/2000/svg" xmlns:xlink="http://www.w3.org/1999/xlink" xmlns:svgjs="http://svgjs.com/svgjs" version="1.1" width="512" height="512" x="0" y="0" viewBox="0 0 512.543 512.543" style="enable-background:new 0 0 512 512" xml:space="preserve" class=""><g><g xmlns="http://www.w3.org/2000/svg"><path d="m458.618 270.526c-7.402 6.838-15.927 12.726-25.474 17.363-51.666 25.093-113.601 4.151-138.694-47.515s-3.551-113.892 48.115-138.986c.022-.011.044-.02.066-.03 4.365 3.388 8.756 6.744 13.103 10.157-19.225 29.565-22.942 68.175-6.412 102.21 20.455 42.118 65.395 63.814 109.296 56.801zm-227.82 213.875c-95.512-21.697-150.798-86.172-150.798-166.796 0-47.007 31.189-86.276 74-98.991-9.5-2.822-19.569-4.342-30-4.342-57.438 0-104 45.896-104 103.333 0 96.237 78.766 169.466 210.698 174.394.034-2.533.069-5.066.1-7.598z" fill="#cee1f2" data-original="#cee1f2" style="" class=""/><path d="m388 318.271c-33.129 0-64.246-12.757-87.618-35.922-23.461-23.253-36.382-54.297-36.382-87.411 0-44.927 24.666-86.385 64.371-108.196 9.684-5.317 21.841-1.781 27.159 7.9s1.781 21.841-7.9 27.159c-26.912 14.783-43.63 42.807-43.63 73.137 0 45.95 37.682 83.333 84 83.333s84-37.383 84-83.333c0-92.511-82.383-154.667-205-154.667h-247c-11.046 0-20-8.954-20-20s8.954-20 20-20h247c72.181 0 133.647 18.809 177.755 54.392 43.364 34.984 67.245 84.801 67.245 140.275 0 33.114-12.921 64.158-36.382 87.411-23.372 23.165-54.489 35.922-87.618 35.922zm-50 174c0-11.046-8.954-20-20-20h-73c-122.617 0-205-62.156-205-154.667 0-45.95 37.682-83.333 84-83.333s84 37.383 84 83.333c0 30.33-16.718 58.354-43.629 73.137-9.681 5.318-13.218 17.478-7.9 27.159s17.477 13.219 27.159 7.9c39.704-21.81 64.37-63.268 64.37-108.195 0-33.114-12.92-64.158-36.382-87.411-23.372-23.166-54.489-35.923-87.618-35.923s-64.246 12.757-87.618 35.923c-23.462 23.253-36.382 54.297-36.382 87.411 0 55.474 23.881 105.291 67.245 140.274 44.107 35.583 105.574 54.392 177.755 54.392h73c11.046 0 20-8.954 20-20z" fill="#ffffff" data-original="#0023c4" style="" class=""/><path d="m492.543 512.271h-91.543c-11.046 0-20-8.954-20-20s8.954-20 20-20h91.543c11.045 0 20 8.954 20 20s-8.955 20-20 20z" fill="#ffffff" data-original="#ff5cf3" style="" class=""/></g></g></svg>
