<?xml version="1.0"?>
<svg xmlns="http://www.w3.org/2000/svg" xmlns:xlink="http://www.w3.org/1999/xlink" xmlns:svgjs="http://svgjs.com/svgjs" version="1.1" width="512" height="512" x="0" y="0" viewBox="0 0 512 512" style="enable-background:new 0 0 512 512" xml:space="preserve" class=""><g><g xmlns="http://www.w3.org/2000/svg"><path d="m290.774 61.006c-12.302-24.826-28.213-41.006-48.774-41.006-81.661 0-90 276.15-90 315l18.76-2.189c13.282-90.123 54.165-271.39 120.014-271.805z" fill="#cee1f2" data-original="#cee1f2" style="" class=""/><path d="m431 454c-31.756 0-61.208-12.934-82.932-36.419-23.596-25.509-36.068-61.327-36.068-103.581 0-22.114-2.526-93.616-14.064-158.043-13.002-72.609-33.913-115.957-55.936-115.957-16.871 0-40.414 33.156-55.894 126.213-11.572 69.562-14.106 145.426-14.106 168.787 0 11.046-8.954 20-20 20s-20-8.954-20-20c0-23.544-2.489-99.77-13.857-168.82-15.316-93.033-38.782-126.18-55.635-126.18-12.2 0-22.508 13.28-22.508 29 0 11.046-8.954 20-20 20s-20-8.954-20-20c0-38.047 28.041-69 62.508-69 27.245 0 49.651 18.633 66.596 55.381 8.958 19.427 16.68 44.553 23.047 74.944 6.42-30.401 14.189-55.538 23.185-74.971 17.004-36.73 39.433-55.354 66.664-55.354 26.962 0 49.303 17.337 66.401 51.529 11.857 23.712 21.584 56.474 28.908 97.377 14.523 81.096 14.691 164.263 14.691 165.094 0 69.079 39.678 100 79 100 22.607 0 41-18.642 41-41.556 0-22.679-18.034-40.444-41.056-40.444-9.088 0-15.711.73-21.476 2.369-10.621 3.021-21.686-3.145-24.706-13.77s3.145-21.686 13.77-24.706c9.345-2.656 19.644-3.894 32.413-3.894 21.636 0 41.956 8.288 57.216 23.337 15.373 15.162 23.839 35.443 23.839 57.108 0 44.971-36.336 81.556-81 81.556z" fill="#4326a7" data-original="#0023c4" style="" class=""/><path d="m167 512c-11.046 0-20-8.954-20-20s8.954-20 20-20c39.8 0 70.135-28.007 96.987-58.273 7.331-8.263 19.971-9.018 28.234-1.687 8.262 7.331 9.018 19.971 1.687 28.234-31.468 35.468-71.154 71.726-126.908 71.726z" fill="#9629e6" data-original="#ff5cf3" style="" class=""/></g></g></svg>
