<?xml version="1.0"?>
<svg xmlns="http://www.w3.org/2000/svg" xmlns:xlink="http://www.w3.org/1999/xlink" xmlns:svgjs="http://svgjs.com/svgjs" version="1.1" width="512" height="512" x="0" y="0" viewBox="0 0 512 512" style="enable-background:new 0 0 512 512" xml:space="preserve" class=""><g><g xmlns="http://www.w3.org/2000/svg"><path d="m80 338c0-33.43 13.762-67.408 37.104-88.886-.044-.222-.091-.443-.135-.664-.91-4.658-1.625-9.35-2.522-14.009-52.959 4.824-94.447 49.343-94.447 103.559 0 57.438 46.562 104 104 104 10.431 0 20.5-1.542 30-4.4-42.811-12.877-74-52.593-74-99.6z" fill="#cee1f2" data-original="#cee1f2" style=""/><path d="m397.417 51.802c-32.457-33.252-76.417-51.802-122.417-51.802-45.544 0-88.35 17.668-120.573 49.786-32.518 32.41-50.427 75.636-50.427 121.714v28.144c0 8.971-5.928 16.726-14.75 19.297-53.316 15.538-90.012 65.221-89.238 120.818.45 32.328 13.376 62.81 36.397 85.831 23.022 23.022 53.591 36.41 86.591 36.41 32.804 0 64.676-12.641 88.066-35.708 23.817-23.488 36.934-54.844 36.934-88.292 0-39.455-19.162-76.909-51.257-100.189-8.941-6.485-21.447-4.495-27.933 4.446s-4.495 21.447 4.446 27.933c22.08 16.015 34.744 40.731 34.744 67.81 0 22.658-8.886 43.9-25.021 59.812-16.13 15.908-37.492 24.5-60.182 24.18-45.023-.626-82.163-37.765-82.789-82.789-.524-37.674 24.327-71.336 60.435-81.86 25.646-7.475 43.557-31.202 43.557-57.699v-28.144c0-35.369 13.731-68.533 38.664-93.384 24.672-24.591 57.447-38.116 92.336-38.116 35.295.116 68.892 14.231 93.792 39.742 25.401 26.024 38.972 60.361 38.212 96.684-1.141 54.488-23.659 84.787-47.5 116.865-7.636 10.274-15.532 20.897-22.515 32.189-5.81 9.395-2.904 21.72 6.491 27.529 9.395 5.81 21.72 2.904 27.529-6.49 6.086-9.84 13.136-19.326 20.599-29.368 25.302-34.043 53.979-72.629 55.387-139.888.987-47.138-16.62-91.695-49.578-125.461z" fill="#4326a7" data-original="#0023c4" style="" class=""/><g><path d="m332 390c.114 0-.114-.002 0 0z" fill="#9629e6" data-original="#ff5cf3" style="" class=""/><g><path d="m512 412c0-11.046-8.954-20-20-20s-20 8.954-20 20c0 32.791-26.669 59.706-59.451 59.998-16.202.126-31.468-6.125-42.909-17.656-11.642-11.733-17.9-27.362-17.622-44.008.185-11.044-8.974-20.149-20.018-20.334-10.89 0-19.793 8.735-19.976 19.666-.46 27.522 9.918 53.394 29.222 72.85 18.888 19.035 43.988 29.484 70.754 29.484 26.522-.236 52.324-10.747 71.008-29.588 18.696-18.853 28.992-43.859 28.992-70.412z" fill="#9629e6" data-original="#ff5cf3" style="" class=""/></g></g></g></g></svg>
