<?xml version="1.0"?>
<svg xmlns="http://www.w3.org/2000/svg" xmlns:xlink="http://www.w3.org/1999/xlink" xmlns:svgjs="http://svgjs.com/svgjs" version="1.1" width="512" height="512" x="0" y="0" viewBox="0 0 512 512" style="enable-background:new 0 0 512 512" xml:space="preserve" class=""><g><g xmlns="http://www.w3.org/2000/svg"><path d="m135.252 356.284c2.759 2.289 4.742 4.964 6.054 7.814 5.533-3.69 11.332-6.945 17.325-9.836-21.068-33.116-32.131-77.097-32.131-135.263 0-94.974 69.688-181.178 160.716-196.553-10.99-1.77-22.298-2.608-33.842-2.421-103.492 1.669-186.874 86.084-186.874 189.974 0 58.843 26.75 111.436 68.752 146.285z" fill="#cee1f2" data-original="#cee1f2" style="" class=""/><path d="m492 414.999h-100.447c-17.828 0-33.252-10.818-39.292-27.56-6.072-16.829-1.08-35.101 12.719-46.549 39.113-32.453 61.536-80.181 61.521-130.945-.015-46.097-17.995-89.164-50.63-121.266-32.654-32.122-76.022-49.41-122.174-48.657-92.193 1.487-167.197 77.739-167.197 169.977 0 50.744 22.424 98.453 61.522 130.893 13.798 11.449 18.79 29.72 12.718 46.548-6.041 16.742-21.464 27.56-39.292 27.56h-101.448c-11.046 0-20-8.955-20-20 0-11.046 8.954-20 20-20h101.448c.618 0 1.257 0 1.667-1.136.461-1.278-.172-1.804-.634-2.187-48.287-40.065-75.981-98.994-75.981-161.678 0-55.492 21.442-107.823 60.378-147.354 38.892-39.487 90.804-61.725 146.174-62.618 56.953-.884 110.514 20.438 150.869 60.137 40.337 39.679 62.562 92.868 62.579 149.769.02 62.708-27.674 121.661-75.979 161.741-.463.384-1.097.91-.635 2.189.41 1.136 1.049 1.136 1.667 1.136h100.447c11.046 0 20 8.954 20 20s-8.954 20-20 20z" fill="#4326a7" data-original="#0023c4" style="" class=""/><path d="m492 511.999h-472c-11.046 0-20-8.954-20-20s8.954-20 20-20h472c11.046 0 20 8.954 20 20s-8.954 20-20 20z" fill="#9629e6" data-original="#ff5cf3" style="" class=""/></g></g></svg>
