<?xml version="1.0"?>
<svg xmlns="http://www.w3.org/2000/svg" xmlns:xlink="http://www.w3.org/1999/xlink" xmlns:svgjs="http://svgjs.com/svgjs" version="1.1" width="512" height="512" x="0" y="0" viewBox="0 0 512.06 512.06" style="enable-background:new 0 0 512 512" xml:space="preserve" class=""><g><g xmlns="http://www.w3.org/2000/svg"><path d="m75.02 254.03h-41c.048-1.8.094-3.6.14-5.4 18.282-9.517 29.419-30.365 24.89-52.235-14.821-71.58-38.891-132.807-57.069-170.365l18-6s79.466 67.207 102.069 176.364c6.16 29.75-16.649 57.636-47.03 57.636zm404.936 8.383c-.177-1.453-.324-2.917-.421-4.383h-42.515c-30.381 0-53.189 27.886-47.029 57.636 22.602 109.158 102.069 176.364 102.069 176.364l18-6c-18.178-37.558-42.247-98.785-57.069-170.364-4.697-22.687 7.46-44.274 26.965-53.253z" fill="#cee1f2" data-original="#cee1f2" style=""/><path d="m372.064 188.526c25.623-110.851 103.459-180.576 106.76-183.49 8.28-7.311 20.919-6.523 28.229 1.758 7.303 8.273 6.524 20.895-1.733 28.208-.714.634-71.636 64.555-94.283 162.532-2.137 9.247-10.367 15.5-19.469 15.5-1.491 0-3.006-.168-4.521-.518-10.762-2.487-17.47-13.228-14.983-23.99zm-245.617 114.027c-10.753-2.507-21.511 4.179-24.019 14.937-22.667 97.22-94.501 158.61-95.197 159.197-8.475 7.084-9.601 19.698-2.517 28.172 3.956 4.732 9.635 7.173 15.355 7.173 4.524 0 9.074-1.527 12.817-4.656 3.365-2.813 82.7-70.162 108.497-180.803 2.509-10.759-4.178-21.513-14.936-24.02zm-93.551-297.794c-8.423-7.123-21.01-6.07-28.149 2.34-7.139 8.411-6.106 21.025 2.292 28.179.743.633 74.58 64.493 95.426 165.171 1.704 8.231-.37 16.7-5.692 23.236-5.352 6.574-13.281 10.345-21.753 10.345h-38.04c-11.046 0-20 8.954-20 20s8.954 20 20 20h38.04c20.556 0 39.791-9.145 52.772-25.09 12.951-15.907 17.996-36.538 13.841-56.601-23.727-114.598-105.277-184.654-108.737-187.58zm472.079 472c-.742-.627-74.438-63.92-95.399-165.148-1.704-8.231.37-16.7 5.692-23.236 5.352-6.574 13.281-10.345 21.753-10.345h38.039c11.046 0 20-8.954 20-20s-8.954-20-20-20h-38.04c-20.556 0-39.791 9.145-52.772 25.09-12.951 15.907-17.996 36.538-13.841 56.601 23.729 114.599 105.278 184.654 108.738 187.58 3.757 3.177 8.342 4.73 12.905 4.729 5.681 0 11.326-2.408 15.281-7.085 7.132-8.434 6.078-21.053-2.356-28.186z" fill="#ffffff" data-original="#0023c4" style="" class=""/><path d="m320.06 278.03h-131c-11.046 0-20-8.954-20-20s8.954-20 20-20h131c11.046 0 20 8.954 20 20s-8.955 20-20 20z" fill="#ffffff" data-original="#ff5cf3" style="" class=""/></g></g></svg>
