<?xml version="1.0"?>
<svg xmlns="http://www.w3.org/2000/svg" xmlns:xlink="http://www.w3.org/1999/xlink" xmlns:svgjs="http://svgjs.com/svgjs" version="1.1" width="512" height="512" x="0" y="0" viewBox="0 0 512 512" style="enable-background:new 0 0 512 512" xml:space="preserve" class=""><g><g xmlns="http://www.w3.org/2000/svg"><path d="m288 244c-5.118 0-10.237-1.953-14.143-5.858-7.81-7.811-7.81-20.474 0-28.284l132-132c7.811-7.811 20.475-7.811 28.285 0s7.81 20.474 0 28.284l-132 132c-3.904 3.906-9.023 5.858-14.142 5.858zm-253.857 262.142 160-160c7.811-7.811 7.811-20.474 0-28.284s-20.475-7.811-28.285 0l-160 160c-7.811 7.811-7.811 20.474 0 28.284 3.905 3.906 9.024 5.858 14.142 5.858s10.238-1.952 14.143-5.858zm304-123c7.811-7.811 7.811-20.474 0-28.284l-180-180c-7.811-7.811-20.475-7.811-28.285 0s-7.811 20.474 0 28.284l180 180c3.905 3.906 9.024 5.858 14.142 5.858s10.238-1.952 14.143-5.858z" fill="#4326a7" data-original="#0023c4" style="" class=""/><path d="m492 248c-11.046 0-20-8.954-20-20v-168c0-11.028-8.972-20-20-20h-168c-11.046 0-20-8.954-20-20s8.954-20 20-20h168c33.084 0 60 26.916 60 60v168c0 11.046-8.954 20-20 20z" fill="#9629e6" data-original="#ff5cf3" style="" class=""/></g></g></svg>
