<?xml version="1.0"?>
<svg xmlns="http://www.w3.org/2000/svg" xmlns:xlink="http://www.w3.org/1999/xlink" xmlns:svgjs="http://svgjs.com/svgjs" version="1.1" width="512" height="512" x="0" y="0" viewBox="0 0 512 512" style="enable-background:new 0 0 512 512" xml:space="preserve" class=""><g><g xmlns="http://www.w3.org/2000/svg"><path d="m268.504 374.794-18.554.206c0-38.85-12.619-355 61-355 19.061 0 35.626 13.545 44.062 33.465-81 20.535-83.064 247.003-86.508 321.329zm-24.43-321.329c-8.436-19.92-25.001-33.465-44.062-33.465-73.619 0-61 316.15-61 355l18.554-.206c3.444-74.326 25.446-282.794 86.508-321.329z" fill="#cee1f2" data-original="#cee1f2" style=""/><path d="m411.012 399c-29.607 0-36-13.673-36-77v-238.514c0-21.427-6.724-41.764-18.933-57.266-13.122-16.663-31.736-26.22-51.067-26.22-18.614 0-36.286 11.228-50.002 31.684-1.242-1.877-2.546-3.705-3.931-5.464-13.122-16.663-31.736-26.22-51.067-26.22-12.594 0-24.398 5.24-34.14 15.153-13.565 13.805-23.845 37.237-31.426 71.638-.938 4.261-1.838 8.705-2.698 13.33-3.382-13.856-7.038-26.193-10.958-36.958-6.641-18.237-13.989-32.065-22.464-42.275-14.328-17.264-29.657-20.888-39.992-20.888-32.159 0-58.322 30.953-58.322 69 0 11.046 8.954 20 20 20s20-8.954 20-20c0-16.598 9.673-29 18.322-29 4.254 0 14.278 7.761 24.871 36.849 9.354 25.688 17.175 62.251 23.243 108.675 9.351 71.526 11.747 143.967 12.357 174.475.064 3.67.206 14.854.206 14.999v.002c0 11.046 8.954 20 20 20s20-8.954 20-20c0-5.543-.1-13.689-.354-23.839-.601-35.687-1.373-100.641 2.952-163.355 7.448-107.986 25.414-137.109 32.793-144.618 3.134-3.188 4.933-3.188 5.61-3.188 16.262 0 30 19.914 30 43.486v291.514c0 11.046 8.954 20 20 20s20-8.954 20-20v-265.188c.024-.173.066-.34.086-.514 5.261-45.498 25.527-69.298 34.914-69.298 16.262 0 30 19.914 30 43.486v238.514c0 29.31.711 55.279 9.445 76.272 11.245 27.025 33.637 40.728 66.555 40.728 11.046 0 20-8.954 20-20s-8.954-20-20-20z" fill="#4326a7" data-original="#0023c4" style="" class=""/><path d="m436.012 512c-5.11 0-10.221-1.946-14.125-5.841-7.82-7.801-7.835-20.464-.034-28.284l44.558-44.667c7.461-7.476 7.461-19.634.003-27.106l-43.61-44.028c-7.773-7.848-7.713-20.511.135-28.284s20.511-7.712 28.283.135l43.558 43.975c22.954 23 22.954 60.509-.053 83.562l-44.555 44.664c-3.907 3.915-9.034 5.874-14.16 5.874z" fill="#9629e6" data-original="#ff5cf3" style="" class=""/></g></g></svg>
