<?xml version="1.0"?>
<svg xmlns="http://www.w3.org/2000/svg" xmlns:xlink="http://www.w3.org/1999/xlink" xmlns:svgjs="http://svgjs.com/svgjs" version="1.1" width="512" height="512" x="0" y="0" viewBox="0 0 512 512" style="enable-background:new 0 0 512 512" xml:space="preserve" class=""><g><g xmlns="http://www.w3.org/2000/svg"><path d="m146 322c0-83.652 60.42-153.191 140-167.36-9.738-1.734-19.763-2.64-30-2.64-93.889 0-170 76.112-170 170s76.111 170 170 170c10.237 0 20.262-.906 30-2.64-79.58-14.169-140-83.708-140-167.36z" fill="#cee1f2" data-original="#cee1f2" style="" class=""/><path d="m256 132c-61.757 0-113-50.243-113-112 0-11.046-8.954-20-20-20s-20 8.954-20 20c0 54.853 29.209 103.009 72.888 129.742-64.842 30.277-109.888 96.1-109.888 172.258 0 104.767 85.233 190 190 190s190-85.233 190-190-85.233-190-190-190zm0 340c-82.71 0-150-67.29-150-150s67.29-150 150-150 150 67.29 150 150-67.29 150-150 150z" fill="#4326a7" data-original="#0023c4" style="" class=""/><path d="m363.62 115.002c-3.924 0-7.889-1.152-11.359-3.553-9.085-6.284-11.355-18.742-5.071-27.826 12.959-18.738 19.81-40.738 19.81-63.623 0-11.046 8.954-20 20-20s20 8.954 20 20c0 31.053-9.307 60.922-26.914 86.377-3.882 5.613-10.121 8.625-16.466 8.625z" fill="#9629e6" data-original="#ff5cf3" style="" class=""/></g></g></svg>
