<?xml version="1.0"?>
<svg xmlns="http://www.w3.org/2000/svg" xmlns:xlink="http://www.w3.org/1999/xlink" xmlns:svgjs="http://svgjs.com/svgjs" version="1.1" width="512" height="512" x="0" y="0" viewBox="0 0 512 512" style="enable-background:new 0 0 512 512" xml:space="preserve" class=""><g><path xmlns="http://www.w3.org/2000/svg" d="m268.492 374.794-18.554.206c0-38.85-12.619-355 61-355 19.061 0 35.626 13.545 44.062 33.465-81 20.535-83.064 247.003-86.508 321.329zm-24.43-321.329c-8.436-19.92-25.001-33.465-44.062-33.465-73.619 0-61 316.15-61 355l18.554-.206c3.444-74.326 25.446-282.794 86.508-321.329z" fill="#cee1f2" data-original="#cee1f2" style="" class=""/><path xmlns="http://www.w3.org/2000/svg" d="m512 492c0 11.046-8.954 20-20 20-18.559 0-54.755-3.63-88.655-27.938-8.977-6.437-11.035-18.932-4.599-27.908 6.438-8.977 18.932-11.035 27.908-4.598 24.808 17.788 51.59 20.444 65.346 20.444 11.046 0 20 8.954 20 20zm-207-492c-18.614 0-36.285 11.228-50.002 31.684-1.242-1.877-2.546-3.705-3.931-5.464-13.123-16.663-31.736-26.22-51.067-26.22-12.594 0-24.399 5.24-34.14 15.153-13.565 13.805-23.844 37.238-31.425 71.638-.939 4.261-1.838 8.704-2.698 13.329-3.381-13.854-7.038-26.194-10.958-36.957-6.641-18.237-13.989-32.065-22.464-42.275-14.329-17.264-29.657-20.888-39.993-20.888-16.217 0-31.779 7.801-42.696 21.404-10.076 12.555-15.626 29.104-15.626 46.596 0 11.046 8.954 20 20 20s20-8.954 20-20c0-16.749 9.474-28 18.322-28 4.253 0 14.278 7.761 24.871 36.849 9.354 25.688 17.175 62.251 23.244 108.675 9.349 71.52 11.747 143.959 12.357 174.471.064 3.681.206 14.858.206 15.003v.002c0 11.046 8.954 20 20 20s20-8.954 20-20c0-5.546-.1-13.693-.354-23.851-.601-35.688-1.373-100.633 2.953-163.343 7.447-107.985 25.413-137.108 32.792-144.618 3.133-3.188 4.932-3.188 5.609-3.188 16.262 0 30 19.914 30 43.486v291.514c0 11.046 8.954 20 20 20s20-8.954 20-20v-265.185c.025-.174.066-.342.086-.517 5.261-45.498 25.526-69.298 34.914-69.298 16.262 0 30 19.915 30 43.486v218.514c0 11.046 8.954 20 20 20s20-8.954 20-20v-218.514c0-21.427-6.724-41.764-18.933-57.266-13.123-16.663-31.736-26.22-51.067-26.22z" fill="#4326a7" data-original="#0023c4" style="" class=""/><path xmlns="http://www.w3.org/2000/svg" d="m296.998 512c-4.977 0-9.959-1.845-13.835-5.56-7.975-7.643-8.245-20.303-.602-28.278 100.4-104.766 152.671-195.444 155.361-269.516.862-23.75-5.204-38.676-18.03-44.364-10.097-4.478-14.652-16.294-10.174-26.391 4.479-10.097 16.294-14.651 26.392-10.173 16.458 7.299 43.771 27.708 41.786 82.38-3.057 84.175-59.06 183.676-166.455 295.74-3.929 4.099-9.183 6.162-14.443 6.162z" fill="#9629e6" data-original="#ff5cf3" style="" class=""/></g></svg>
